<svg xmlns="http://www.w3.org/2000/svg" xmlns:xlink="http://www.w3.org/1999/xlink" width="16" height="16" viewBox="0 0 16 16"><defs><linearGradient id="b" x1="-819.5" x2="-819.5" y1="1000.465" y2="992.055" gradientTransform="matrix(0 .95143 -.95143 0 952.874 1824.255)" gradientUnits="userSpaceOnUse" xlink:href="#a"/><linearGradient id="a"><stop offset="0" stop-color="#4b5d64"/><stop offset="1" stop-color="#3d4155"/></linearGradient></defs><path fill="url(#b)" fill-rule="evenodd" d="m 12.999714,1044.5213 a 0.47571676,0.47571676 0 0 0 -0.2193,-0.3673 c 2.8e-4,0 -3e-4,0 0,0 l -9.0713601,-5.3609 c -0.002,8e-4 -0.002,0 -0.004,0 a 0.47571676,0.47571676 0 0 0 -0.46787,0 0.47571676,0.47571676 0 0 0 -0.23718,0.4127 l 0,10.6928 0,0 a 0.47571676,0.47571676 0 0 0 0.23718,0.403 0.47571676,0.47571676 0 0 0 0.46461,0 c 0.002,10e-4 0.004,0 0.004,0 l 9.0599801,-5.3545 c 1.6e-4,0 -1.8e-4,0 0,0 a 0.47571676,0.47571676 0 0 0 0.23392,-0.4094 0.47571676,0.47571676 0 0 0 0,-0.034 z" transform="translate(0 -1036.362)"/></svg>